<svg width="60" height="60" viewBox="0 0 60 60" fill="none" xmlns="http://www.w3.org/2000/svg">
<path d="M20.7003 48H22.3203L22.5603 50.28C22.8603 52.8 24.9603 54.72 27.4803 54.72H31.9803C34.5003 54.66 36.6003 52.74 36.9003 50.28L37.1403 48H38.7603C41.2203 48 42.7203 46.08 42.0003 43.68L38.7603 32.28V25.5C38.7603 23.04 36.7203 21 34.2603 21H25.2003C22.7403 21 20.7003 23.04 20.7003 25.5V32.28L17.4603 43.68C16.8003 46.08 18.2403 48 20.7003 48ZM25.2003 25.5H34.2003V32.88L37.2603 43.5H33.6003C33.2403 43.5 33.0003 43.74 32.9403 44.1L32.3403 49.86C32.2803 50.04 32.1003 50.22 31.9203 50.28H27.4203C27.2403 50.22 27.0603 50.1 27.0003 49.86L26.4603 44.1C26.4003 43.74 26.1603 43.5 25.8003 43.5H22.1403L25.2003 32.88V25.5Z" fill="#BDBDBD"/>
<path d="M29.7 18.7202C33.42 18.7202 36.42 15.7202 36.42 12.0002C36.42 8.28022 33.42 5.22021 29.7 5.22021C25.98 5.22021 22.98 8.22021 22.98 12.0002C22.98 15.7202 25.98 18.7202 29.7 18.7202ZM29.7 9.72022C30.96 9.72022 31.98 10.7402 31.98 12.0002C31.98 13.2602 30.96 14.2802 29.7 14.2802C28.44 14.2802 27.42 13.2602 27.42 12.0002C27.42 10.7402 28.5 9.72022 29.7 9.72022Z" fill="#BDBDBD"/>
</svg>
