<svg width="60" height="60" viewBox="0 0 60 60" fill="none" xmlns="http://www.w3.org/2000/svg">
<path d="M29.9998 18.7202C33.7198 18.7202 36.7198 15.7202 36.7198 12.0002C36.7198 8.28022 33.7198 5.22021 29.9998 5.22021C26.2798 5.22021 23.2798 8.22021 23.2798 12.0002C23.2798 15.7202 26.2798 18.7202 29.9998 18.7202ZM29.9998 9.72022C31.2598 9.72022 32.2798 10.7402 32.2798 12.0002C32.2798 13.2602 31.2598 14.2802 29.9998 14.2802C28.7398 14.2802 27.7198 13.2602 27.7198 12.0002C27.7198 10.7402 28.7398 9.72022 29.9998 9.72022Z" fill="#BDBDBD"/>
<path d="M20.9999 41.22H21.9599L22.7999 50.28C23.0999 52.8 25.1999 54.72 27.7199 54.72H32.2199C34.7399 54.72 36.8999 52.8 37.1999 50.28L38.0399 41.28H38.9999C40.9199 41.4 42.5399 39.96 42.6599 38.04C42.6599 37.68 42.6599 37.26 42.5399 36.9L40.0199 25.44C39.3599 22.92 37.1399 21.12 34.5599 21H25.5599C22.9799 21.12 20.7599 22.86 20.0999 25.38L17.5799 36.84C17.0399 38.7 18.1199 40.56 19.9199 41.1C20.2199 41.22 20.6399 41.28 20.9999 41.22ZM24.4199 26.4C24.5999 25.92 25.0199 25.62 25.4999 25.5H34.4999C34.9799 25.56 35.3999 25.92 35.5799 26.4L37.8599 36.78H34.4999C34.1399 36.78 33.8999 37.02 33.8399 37.38L32.6399 49.86C32.5799 50.04 32.3999 50.22 32.2199 50.28H27.7199C27.5399 50.22 27.3599 50.1 27.2999 49.86L26.0999 37.38C26.0399 37.02 25.7999 36.78 25.4399 36.78H22.1399L24.4199 26.4Z" fill="#BDBDBD"/>
</svg>
